<mxfile host="app.diagrams.net" agent="Mozilla/5.0 (Windows NT 10.0; Win64; x64; rv:130.0) Gecko/20100101 Firefox/130.0" version="24.7.16">
  <diagram name="Page-1" id="e7e014a7-5840-1c2e-5031-d8a46d1fe8dd">
    <mxGraphModel dx="2074" dy="1134" grid="1" gridSize="10" guides="1" tooltips="1" connect="1" arrows="1" fold="1" page="1" pageScale="1" pageWidth="1169" pageHeight="826" background="none" math="0" shadow="0">
      <root>
        <mxCell id="0" />
        <mxCell id="1" parent="0" />
        <mxCell id="2" value="Connexion" style="swimlane;whiteSpace=wrap" parent="1" vertex="1">
          <mxGeometry x="30" y="128" width="290" height="782" as="geometry" />
        </mxCell>
        <mxCell id="5" value="" style="ellipse;shape=startState;fillColor=#000000;strokeColor=#ff0000;" parent="2" vertex="1">
          <mxGeometry x="150" y="40" width="30" height="30" as="geometry" />
        </mxCell>
        <mxCell id="6" value="" style="edgeStyle=elbowEdgeStyle;elbow=horizontal;verticalAlign=bottom;endArrow=open;endSize=8;strokeColor=#FF0000;endFill=1;rounded=0" parent="2" edge="1">
          <mxGeometry x="100" y="40" as="geometry">
            <mxPoint x="165.5" y="110" as="targetPoint" />
            <mxPoint x="165" y="70" as="sourcePoint" />
          </mxGeometry>
        </mxCell>
        <mxCell id="y1hk1-lNLU-EG55ICA1L-42" value="" style="edgeStyle=orthogonalEdgeStyle;rounded=0;orthogonalLoop=1;jettySize=auto;html=1;" parent="2" target="y1hk1-lNLU-EG55ICA1L-41" edge="1">
          <mxGeometry relative="1" as="geometry">
            <mxPoint x="165" y="160" as="sourcePoint" />
          </mxGeometry>
        </mxCell>
        <mxCell id="E0teG35sYCp0bTSXdKpn-89" style="edgeStyle=orthogonalEdgeStyle;rounded=0;orthogonalLoop=1;jettySize=auto;html=1;endArrow=none;endFill=0;" parent="2" source="10" edge="1">
          <mxGeometry relative="1" as="geometry">
            <mxPoint x="270" y="350" as="targetPoint" />
          </mxGeometry>
        </mxCell>
        <mxCell id="10" value="Choix menu" style="" parent="2" vertex="1">
          <mxGeometry x="110" y="412" width="110" height="50" as="geometry" />
        </mxCell>
        <mxCell id="y1hk1-lNLU-EG55ICA1L-41" value="Nouvel utilisateur" style="rhombus;fillColor=#ffffc0;strokeColor=#ff0000;" parent="2" vertex="1">
          <mxGeometry x="107.5" y="112" width="115" height="40" as="geometry" />
        </mxCell>
        <mxCell id="y1hk1-lNLU-EG55ICA1L-45" value="non" style="text;html=1;align=center;verticalAlign=middle;resizable=0;points=[];autosize=1;strokeColor=none;fillColor=none;" parent="2" vertex="1">
          <mxGeometry x="167.5" y="152" width="40" height="30" as="geometry" />
        </mxCell>
        <mxCell id="E0teG35sYCp0bTSXdKpn-47" style="edgeStyle=orthogonalEdgeStyle;rounded=0;orthogonalLoop=1;jettySize=auto;html=1;exitX=0.5;exitY=1;exitDx=0;exitDy=0;endArrow=none;endFill=0;" parent="2" source="y1hk1-lNLU-EG55ICA1L-47" edge="1">
          <mxGeometry relative="1" as="geometry">
            <mxPoint x="160" y="242" as="targetPoint" />
            <Array as="points">
              <mxPoint x="65" y="242" />
            </Array>
          </mxGeometry>
        </mxCell>
        <mxCell id="y1hk1-lNLU-EG55ICA1L-47" value="Création Utilisateur" style="" parent="2" vertex="1">
          <mxGeometry x="10" y="172" width="110" height="50" as="geometry" />
        </mxCell>
        <mxCell id="y1hk1-lNLU-EG55ICA1L-57" value="oui" style="text;html=1;align=center;verticalAlign=middle;resizable=0;points=[];autosize=1;strokeColor=none;fillColor=none;" parent="2" vertex="1">
          <mxGeometry x="120" y="92" width="40" height="30" as="geometry" />
        </mxCell>
        <mxCell id="E0teG35sYCp0bTSXdKpn-45" style="edgeStyle=orthogonalEdgeStyle;rounded=0;orthogonalLoop=1;jettySize=auto;html=1;" parent="2" source="y1hk1-lNLU-EG55ICA1L-41" edge="1">
          <mxGeometry relative="1" as="geometry">
            <mxPoint x="65" y="172" as="targetPoint" />
          </mxGeometry>
        </mxCell>
        <mxCell id="E0teG35sYCp0bTSXdKpn-49" style="edgeStyle=orthogonalEdgeStyle;rounded=0;orthogonalLoop=1;jettySize=auto;html=1;entryX=0.5;entryY=0;entryDx=0;entryDy=0;" parent="2" source="E0teG35sYCp0bTSXdKpn-46" target="10" edge="1">
          <mxGeometry relative="1" as="geometry" />
        </mxCell>
        <mxCell id="E0teG35sYCp0bTSXdKpn-46" value="Connexion" style="" parent="2" vertex="1">
          <mxGeometry x="110" y="292" width="110" height="50" as="geometry" />
        </mxCell>
        <mxCell id="E0teG35sYCp0bTSXdKpn-48" style="edgeStyle=orthogonalEdgeStyle;rounded=0;orthogonalLoop=1;jettySize=auto;html=1;entryX=0.5;entryY=0;entryDx=0;entryDy=0;" parent="2" source="y1hk1-lNLU-EG55ICA1L-41" target="E0teG35sYCp0bTSXdKpn-46" edge="1">
          <mxGeometry relative="1" as="geometry" />
        </mxCell>
        <mxCell id="3" value="Playlist" style="swimlane;whiteSpace=wrap" parent="1" vertex="1">
          <mxGeometry x="320" y="128" width="730" height="432" as="geometry" />
        </mxCell>
        <mxCell id="y1hk1-lNLU-EG55ICA1L-63" style="edgeStyle=orthogonalEdgeStyle;rounded=0;orthogonalLoop=1;jettySize=auto;html=1;" parent="3" source="y1hk1-lNLU-EG55ICA1L-51" edge="1">
          <mxGeometry relative="1" as="geometry">
            <mxPoint x="200" y="281" as="targetPoint" />
          </mxGeometry>
        </mxCell>
        <mxCell id="y1hk1-lNLU-EG55ICA1L-51" value="Gestion playlist" style="" parent="3" vertex="1">
          <mxGeometry x="40" y="256" width="110" height="50" as="geometry" />
        </mxCell>
        <mxCell id="HM3q4NxNLYZ2rVtXzt3j-50" value="" style="edgeStyle=orthogonalEdgeStyle;rounded=0;orthogonalLoop=1;jettySize=auto;html=1;" edge="1" parent="3" source="y1hk1-lNLU-EG55ICA1L-64" target="y1hk1-lNLU-EG55ICA1L-59">
          <mxGeometry relative="1" as="geometry" />
        </mxCell>
        <mxCell id="y1hk1-lNLU-EG55ICA1L-64" value="telecharger" style="ellipse;whiteSpace=wrap;html=1;" parent="3" vertex="1">
          <mxGeometry x="200" y="92" width="90" height="40" as="geometry" />
        </mxCell>
        <mxCell id="y1hk1-lNLU-EG55ICA1L-65" value="Supprimer" style="ellipse;whiteSpace=wrap;html=1;" parent="3" vertex="1">
          <mxGeometry x="220" y="261" width="90" height="40" as="geometry" />
        </mxCell>
        <mxCell id="y1hk1-lNLU-EG55ICA1L-66" value="ajouter" style="ellipse;whiteSpace=wrap;html=1;" parent="3" vertex="1">
          <mxGeometry x="220" y="312" width="90" height="40" as="geometry" />
        </mxCell>
        <mxCell id="y1hk1-lNLU-EG55ICA1L-62" value="" style="endArrow=none;html=1;rounded=0;" parent="3" edge="1">
          <mxGeometry width="50" height="50" relative="1" as="geometry">
            <mxPoint x="200" y="382" as="sourcePoint" />
            <mxPoint x="200" y="218" as="targetPoint" />
          </mxGeometry>
        </mxCell>
        <mxCell id="HM3q4NxNLYZ2rVtXzt3j-46" style="edgeStyle=orthogonalEdgeStyle;rounded=0;orthogonalLoop=1;jettySize=auto;html=1;" edge="1" parent="3" source="y1hk1-lNLU-EG55ICA1L-59" target="E0teG35sYCp0bTSXdKpn-50">
          <mxGeometry relative="1" as="geometry" />
        </mxCell>
        <mxCell id="HM3q4NxNLYZ2rVtXzt3j-49" value="" style="edgeStyle=orthogonalEdgeStyle;rounded=0;orthogonalLoop=1;jettySize=auto;html=1;entryX=0.5;entryY=1;entryDx=0;entryDy=0;" edge="1" parent="3" source="y1hk1-lNLU-EG55ICA1L-59" target="HM3q4NxNLYZ2rVtXzt3j-47">
          <mxGeometry relative="1" as="geometry" />
        </mxCell>
        <mxCell id="y1hk1-lNLU-EG55ICA1L-59" value="déjà dans BD" style="rhombus;fillColor=#ffffc0;strokeColor=#ff0000;" parent="3" vertex="1">
          <mxGeometry x="397.5" y="92" width="115" height="40" as="geometry" />
        </mxCell>
        <mxCell id="HM3q4NxNLYZ2rVtXzt3j-59" style="edgeStyle=orthogonalEdgeStyle;rounded=0;orthogonalLoop=1;jettySize=auto;html=1;entryX=0;entryY=0.5;entryDx=0;entryDy=0;" edge="1" parent="3" source="E0teG35sYCp0bTSXdKpn-50" target="HM3q4NxNLYZ2rVtXzt3j-54">
          <mxGeometry relative="1" as="geometry" />
        </mxCell>
        <mxCell id="E0teG35sYCp0bTSXdKpn-50" value="ajouter son" style="ellipse;whiteSpace=wrap;html=1;" parent="3" vertex="1">
          <mxGeometry x="410" y="182" width="90" height="40" as="geometry" />
        </mxCell>
        <mxCell id="E0teG35sYCp0bTSXdKpn-51" value="Supprimer" style="ellipse;whiteSpace=wrap;html=1;" parent="3" vertex="1">
          <mxGeometry x="410" y="242" width="90" height="40" as="geometry" />
        </mxCell>
        <mxCell id="E0teG35sYCp0bTSXdKpn-52" value="changer ordre" style="ellipse;whiteSpace=wrap;html=1;" parent="3" vertex="1">
          <mxGeometry x="410" y="300" width="90" height="40" as="geometry" />
        </mxCell>
        <mxCell id="E0teG35sYCp0bTSXdKpn-53" value="" style="endArrow=none;html=1;rounded=0;" parent="3" edge="1">
          <mxGeometry width="50" height="50" relative="1" as="geometry">
            <mxPoint x="390" y="382" as="sourcePoint" />
            <mxPoint x="390" y="192" as="targetPoint" />
          </mxGeometry>
        </mxCell>
        <mxCell id="E0teG35sYCp0bTSXdKpn-84" value="oui" style="text;html=1;align=center;verticalAlign=middle;resizable=0;points=[];autosize=1;strokeColor=none;fillColor=none;" parent="3" vertex="1">
          <mxGeometry x="420" y="132" width="40" height="30" as="geometry" />
        </mxCell>
        <mxCell id="E0teG35sYCp0bTSXdKpn-85" value="non" style="text;html=1;align=center;verticalAlign=middle;resizable=0;points=[];autosize=1;strokeColor=none;fillColor=none;" parent="3" vertex="1">
          <mxGeometry x="512.5" y="112" width="40" height="30" as="geometry" />
        </mxCell>
        <mxCell id="HM3q4NxNLYZ2rVtXzt3j-53" style="edgeStyle=orthogonalEdgeStyle;rounded=0;orthogonalLoop=1;jettySize=auto;html=1;" edge="1" parent="3" source="HM3q4NxNLYZ2rVtXzt3j-38">
          <mxGeometry relative="1" as="geometry">
            <mxPoint x="180" y="97" as="targetPoint" />
          </mxGeometry>
        </mxCell>
        <mxCell id="HM3q4NxNLYZ2rVtXzt3j-38" value="Rechercher" style="" vertex="1" parent="3">
          <mxGeometry x="40" y="72" width="110" height="50" as="geometry" />
        </mxCell>
        <mxCell id="HM3q4NxNLYZ2rVtXzt3j-43" value="" style="endArrow=none;html=1;rounded=0;" edge="1" parent="3">
          <mxGeometry width="50" height="50" relative="1" as="geometry">
            <mxPoint x="180" y="142" as="sourcePoint" />
            <mxPoint x="180" y="32" as="targetPoint" />
          </mxGeometry>
        </mxCell>
        <mxCell id="HM3q4NxNLYZ2rVtXzt3j-44" value="Preview" style="ellipse;whiteSpace=wrap;html=1;" vertex="1" parent="3">
          <mxGeometry x="200" y="32" width="90" height="40" as="geometry" />
        </mxCell>
        <mxCell id="HM3q4NxNLYZ2rVtXzt3j-61" style="edgeStyle=orthogonalEdgeStyle;rounded=0;orthogonalLoop=1;jettySize=auto;html=1;" edge="1" parent="3" source="HM3q4NxNLYZ2rVtXzt3j-45">
          <mxGeometry relative="1" as="geometry">
            <mxPoint x="380" y="232" as="targetPoint" />
          </mxGeometry>
        </mxCell>
        <mxCell id="HM3q4NxNLYZ2rVtXzt3j-45" value="modifier playlist" style="ellipse;whiteSpace=wrap;html=1;" vertex="1" parent="3">
          <mxGeometry x="220" y="212" width="90" height="40" as="geometry" />
        </mxCell>
        <mxCell id="HM3q4NxNLYZ2rVtXzt3j-48" value="" style="edgeStyle=orthogonalEdgeStyle;rounded=0;orthogonalLoop=1;jettySize=auto;html=1;entryX=0.5;entryY=0;entryDx=0;entryDy=0;" edge="1" parent="3" source="HM3q4NxNLYZ2rVtXzt3j-47" target="y1hk1-lNLU-EG55ICA1L-59">
          <mxGeometry relative="1" as="geometry" />
        </mxCell>
        <mxCell id="HM3q4NxNLYZ2rVtXzt3j-47" value="API" style="" vertex="1" parent="3">
          <mxGeometry x="540" y="42" width="110" height="50" as="geometry" />
        </mxCell>
        <mxCell id="HM3q4NxNLYZ2rVtXzt3j-54" value="Rechercher" style="" vertex="1" parent="3">
          <mxGeometry x="560" y="177" width="110" height="50" as="geometry" />
        </mxCell>
        <mxCell id="HM3q4NxNLYZ2rVtXzt3j-56" value="changer nom" style="ellipse;whiteSpace=wrap;html=1;" vertex="1" parent="3">
          <mxGeometry x="410" y="352" width="90" height="40" as="geometry" />
        </mxCell>
        <mxCell id="HM3q4NxNLYZ2rVtXzt3j-58" value="copier" style="ellipse;whiteSpace=wrap;html=1;" vertex="1" parent="3">
          <mxGeometry x="220" y="362" width="90" height="40" as="geometry" />
        </mxCell>
        <mxCell id="E0teG35sYCp0bTSXdKpn-87" value="Lecteur" style="swimlane;whiteSpace=wrap;html=1;" parent="1" vertex="1">
          <mxGeometry x="320" y="560" width="730" height="350" as="geometry" />
        </mxCell>
        <mxCell id="E0teG35sYCp0bTSXdKpn-42" style="edgeStyle=orthogonalEdgeStyle;rounded=0;orthogonalLoop=1;jettySize=auto;html=1;" parent="E0teG35sYCp0bTSXdKpn-87" source="y1hk1-lNLU-EG55ICA1L-50" edge="1">
          <mxGeometry relative="1" as="geometry">
            <mxPoint x="200" y="100" as="targetPoint" />
            <Array as="points">
              <mxPoint x="95" y="100" />
              <mxPoint x="181" y="100" />
            </Array>
          </mxGeometry>
        </mxCell>
        <mxCell id="y1hk1-lNLU-EG55ICA1L-50" value="Jouer playlist" style="" parent="E0teG35sYCp0bTSXdKpn-87" vertex="1">
          <mxGeometry x="40" y="44" width="110" height="50" as="geometry" />
        </mxCell>
        <mxCell id="y1hk1-lNLU-EG55ICA1L-67" value="&lt;div&gt;Lecture&lt;br&gt;&lt;/div&gt;" style="ellipse;whiteSpace=wrap;html=1;" parent="E0teG35sYCp0bTSXdKpn-87" vertex="1">
          <mxGeometry x="220" y="40" width="90" height="40" as="geometry" />
        </mxCell>
        <mxCell id="y1hk1-lNLU-EG55ICA1L-68" value="Pause" style="ellipse;whiteSpace=wrap;html=1;" parent="E0teG35sYCp0bTSXdKpn-87" vertex="1">
          <mxGeometry x="220" y="100" width="90" height="40" as="geometry" />
        </mxCell>
        <mxCell id="y1hk1-lNLU-EG55ICA1L-69" value="Suivant" style="ellipse;whiteSpace=wrap;html=1;" parent="E0teG35sYCp0bTSXdKpn-87" vertex="1">
          <mxGeometry x="220" y="158" width="90" height="40" as="geometry" />
        </mxCell>
        <mxCell id="y1hk1-lNLU-EG55ICA1L-70" value="" style="endArrow=none;html=1;rounded=0;" parent="E0teG35sYCp0bTSXdKpn-87" edge="1">
          <mxGeometry width="50" height="50" relative="1" as="geometry">
            <mxPoint x="200" y="240" as="sourcePoint" />
            <mxPoint x="200" y="50" as="targetPoint" />
          </mxGeometry>
        </mxCell>
        <mxCell id="38" value="" style="ellipse;shape=endState;fillColor=#000000;strokeColor=#ff0000" parent="E0teG35sYCp0bTSXdKpn-87" vertex="1">
          <mxGeometry x="660" y="84" width="30" height="30" as="geometry" />
        </mxCell>
        <mxCell id="E0teG35sYCp0bTSXdKpn-44" style="edgeStyle=orthogonalEdgeStyle;rounded=0;orthogonalLoop=1;jettySize=auto;html=1;" parent="E0teG35sYCp0bTSXdKpn-87" source="E0teG35sYCp0bTSXdKpn-43" target="38" edge="1">
          <mxGeometry relative="1" as="geometry" />
        </mxCell>
        <mxCell id="E0teG35sYCp0bTSXdKpn-63" style="edgeStyle=orthogonalEdgeStyle;rounded=0;orthogonalLoop=1;jettySize=auto;html=1;" parent="E0teG35sYCp0bTSXdKpn-87" target="E0teG35sYCp0bTSXdKpn-43" edge="1">
          <mxGeometry relative="1" as="geometry">
            <mxPoint x="320" y="99" as="sourcePoint" />
          </mxGeometry>
        </mxCell>
        <mxCell id="E0teG35sYCp0bTSXdKpn-43" value="superposer " style="rhombus;fillColor=#ffffc0;strokeColor=#ff0000;" parent="E0teG35sYCp0bTSXdKpn-87" vertex="1">
          <mxGeometry x="450" y="79" width="115" height="40" as="geometry" />
        </mxCell>
        <mxCell id="E0teG35sYCp0bTSXdKpn-59" value="oui" style="text;html=1;align=center;verticalAlign=middle;resizable=0;points=[];autosize=1;strokeColor=none;fillColor=none;" parent="E0teG35sYCp0bTSXdKpn-87" vertex="1">
          <mxGeometry x="512.25" y="119" width="40" height="30" as="geometry" />
        </mxCell>
        <mxCell id="E0teG35sYCp0bTSXdKpn-60" value="non" style="text;html=1;align=center;verticalAlign=middle;resizable=0;points=[];autosize=1;strokeColor=none;fillColor=none;" parent="E0teG35sYCp0bTSXdKpn-87" vertex="1">
          <mxGeometry x="552.25" y="64" width="40" height="30" as="geometry" />
        </mxCell>
        <mxCell id="E0teG35sYCp0bTSXdKpn-61" value="" style="endArrow=none;html=1;rounded=0;" parent="E0teG35sYCp0bTSXdKpn-87" edge="1">
          <mxGeometry width="50" height="50" relative="1" as="geometry">
            <mxPoint x="320" y="240" as="sourcePoint" />
            <mxPoint x="320" y="50" as="targetPoint" />
          </mxGeometry>
        </mxCell>
        <mxCell id="E0teG35sYCp0bTSXdKpn-58" style="edgeStyle=orthogonalEdgeStyle;rounded=0;orthogonalLoop=1;jettySize=auto;html=1;entryX=0.25;entryY=1;entryDx=0;entryDy=0;" parent="E0teG35sYCp0bTSXdKpn-87" source="E0teG35sYCp0bTSXdKpn-43" target="y1hk1-lNLU-EG55ICA1L-50" edge="1">
          <mxGeometry relative="1" as="geometry">
            <Array as="points">
              <mxPoint x="508" y="280" />
              <mxPoint x="68" y="280" />
            </Array>
          </mxGeometry>
        </mxCell>
        <mxCell id="HM3q4NxNLYZ2rVtXzt3j-51" value="en boucle" style="ellipse;whiteSpace=wrap;html=1;" vertex="1" parent="E0teG35sYCp0bTSXdKpn-87">
          <mxGeometry x="220" y="210" width="90" height="40" as="geometry" />
        </mxCell>
        <mxCell id="E0teG35sYCp0bTSXdKpn-88" style="edgeStyle=orthogonalEdgeStyle;rounded=0;orthogonalLoop=1;jettySize=auto;html=1;entryX=0;entryY=0.5;entryDx=0;entryDy=0;exitX=0;exitY=0.5;exitDx=0;exitDy=0;endArrow=none;endFill=0;" parent="1" source="y1hk1-lNLU-EG55ICA1L-50" target="y1hk1-lNLU-EG55ICA1L-51" edge="1">
          <mxGeometry relative="1" as="geometry">
            <Array as="points">
              <mxPoint x="300" y="629" />
              <mxPoint x="300" y="409" />
            </Array>
          </mxGeometry>
        </mxCell>
        <mxCell id="HM3q4NxNLYZ2rVtXzt3j-39" value="" style="edgeStyle=orthogonalEdgeStyle;rounded=0;orthogonalLoop=1;jettySize=auto;html=1;endArrow=none;endFill=0;" edge="1" parent="1" source="HM3q4NxNLYZ2rVtXzt3j-38">
          <mxGeometry relative="1" as="geometry">
            <mxPoint x="300" y="410" as="targetPoint" />
          </mxGeometry>
        </mxCell>
      </root>
    </mxGraphModel>
  </diagram>
</mxfile>
